<svg xmlns="http://www.w3.org/2000/svg" xmlns:xlink="http://www.w3.org/1999/xlink" width="23" zoomAndPan="magnify" viewBox="0 0 1500 1499.999933" height="23" preserveAspectRatio="xMidYMid meet" version="1.0"><path fill="#acb4bc" d="M 0 750 C 0 335.789062 335.789062 0 750 0 C 1164.210938 0 1500 335.789062 1500 750 C 1500 1164.210938 1164.210938 1500 750 1500 C 335.789062 1500 0 1164.210938 0 750 Z M 530.015625 621.179688 L 360.050781 621.179688 L 360.050781 1131.863281 L 530.015625 1131.863281 Z M 541.210938 463.210938 C 540.109375 413.136719 504.304688 375 446.15625 375 C 388.011719 375 350 413.136719 350 463.210938 C 350 512.242188 386.890625 551.476562 443.949219 551.476562 L 445.039062 551.476562 C 504.304688 551.476562 541.210938 512.242188 541.210938 463.210938 Z M 1142.980469 839.054688 C 1142.980469 682.195312 1059.132812 609.191406 947.285156 609.191406 C 857.042969 609.191406 816.644531 658.757812 794.085938 693.527344 L 794.085938 621.195312 L 624.097656 621.195312 C 626.335938 669.117188 624.097656 1131.875 624.097656 1131.875 L 794.085938 1131.875 L 794.085938 846.667969 C 794.085938 831.40625 795.1875 816.179688 799.679688 805.253906 C 811.964844 774.761719 839.933594 743.195312 886.890625 743.195312 C 948.417969 743.195312 973.015625 790.023438 973.015625 858.648438 L 973.015625 1131.863281 L 1142.976562 1131.863281 Z M 1142.980469 839.054688 " fill-opacity="1" fill-rule="evenodd"/></svg>