<svg width="182" height="243" viewBox="0 0 182 243" fill="none" xmlns="http://www.w3.org/2000/svg">
<circle cx="2" cy="2" r="2" fill="#ABB2BF"/>
<circle cx="26.3333" cy="2" r="2" fill="#ABB2BF"/>
<circle cx="50.6667" cy="2" r="2" fill="#ABB2BF"/>
<circle cx="75" cy="2" r="2" fill="#ABB2BF"/>
<circle cx="2" cy="22" r="2" fill="#ABB2BF"/>
<circle cx="26.3333" cy="22" r="2" fill="#ABB2BF"/>
<circle cx="50.6667" cy="22" r="2" fill="#ABB2BF"/>
<circle cx="75" cy="22" r="2" fill="#ABB2BF"/>
<circle cx="2" cy="42" r="2" fill="#ABB2BF"/>
<circle cx="26.3333" cy="42" r="2" fill="#ABB2BF"/>
<circle cx="50.6667" cy="42" r="2" fill="#ABB2BF"/>
<circle cx="75" cy="42" r="2" fill="#ABB2BF"/>
<circle cx="2" cy="62" r="2" fill="#ABB2BF"/>
<circle cx="26.3333" cy="62" r="2" fill="#ABB2BF"/>
<circle cx="50.6667" cy="62" r="2" fill="#ABB2BF"/>
<circle cx="75" cy="62" r="2" fill="#ABB2BF"/>
<mask id="path-17-inside-1_52_1850" fill="white">
<path d="M138.399 140.75H112.332V112.5H138.399V140.75ZM164.468 140.75H138.4V56H164.468V140.75ZM138.399 84.25H112.332V56H138.399V84.25Z"/>
</mask>
<path d="M138.399 140.75V141.75H139.399V140.75H138.399ZM112.332 140.75H111.332V141.75H112.332V140.75ZM112.332 112.5V111.5H111.332V112.5H112.332ZM138.399 112.5H139.399V111.5H138.399V112.5ZM164.468 140.75V141.75H165.468V140.75H164.468ZM138.4 140.75H137.4V141.75H138.4V140.75ZM138.4 56V55H137.4V56H138.4ZM164.468 56H165.468V55H164.468V56ZM138.399 84.25V85.25H139.399V84.25H138.399ZM112.332 84.25H111.332V85.25H112.332V84.25ZM112.332 56V55H111.332V56H112.332ZM138.399 56H139.399V55H138.399V56ZM138.399 140.75V139.75H112.332V140.75V141.75H138.399V140.75ZM112.332 140.75H113.332V112.5H112.332H111.332V140.75H112.332ZM112.332 112.5V113.5H138.399V112.5V111.5H112.332V112.5ZM138.399 112.5H137.399V140.75H138.399H139.399V112.5H138.399ZM164.468 140.75V139.75H138.4V140.75V141.75H164.468V140.75ZM138.4 140.75H139.4V56H138.4H137.4V140.75H138.4ZM138.4 56V57H164.468V56V55H138.4V56ZM164.468 56H163.468V140.75H164.468H165.468V56H164.468ZM138.399 84.25V83.25H112.332V84.25V85.25H138.399V84.25ZM112.332 84.25H113.332V56H112.332H111.332V84.25H112.332ZM112.332 56V57H138.399V56V55H112.332V56ZM138.399 56H137.399V84.25H138.399H139.399V56H138.399Z" fill="#C778DD" mask="url(#path-17-inside-1_52_1850)"/>
<mask id="path-19-outside-2_52_1850" maskUnits="userSpaceOnUse" x="59.1963" y="83.2501" width="55" height="87" fill="black">
<rect fill="white" x="59.1963" y="83.2501" width="55" height="87"/>
<path fill-rule="evenodd" clip-rule="evenodd" d="M60.1963 84.2501H86.264H86.2641H112.332V112.5H86.2641V140.75H112.332V169H86.2641H86.264H60.1963V140.75V112.5V84.2501Z"/>
</mask>
<path d="M60.1963 84.2501V83.2501H59.1963V84.2501H60.1963ZM112.332 84.2501H113.332V83.2501H112.332V84.2501ZM112.332 112.5V113.5H113.332V112.5H112.332ZM86.2641 112.5V111.5H85.2641V112.5H86.2641ZM86.2641 140.75H85.2641V141.75H86.2641V140.75ZM112.332 140.75H113.332V139.75H112.332V140.75ZM112.332 169V170H113.332V169H112.332ZM60.1963 169H59.1963V170H60.1963V169ZM86.264 84.2501V83.2501H60.1963V84.2501V85.2501H86.264V84.2501ZM86.2641 84.2501V83.2501H86.264V84.2501V85.2501H86.2641V84.2501ZM112.332 84.2501V83.2501H86.2641V84.2501V85.2501H112.332V84.2501ZM112.332 112.5H113.332V84.2501H112.332H111.332V112.5H112.332ZM86.2641 112.5V113.5H112.332V112.5V111.5H86.2641V112.5ZM86.2641 140.75H87.2641V112.5H86.2641H85.2641V140.75H86.2641ZM86.2641 140.75V141.75H112.332V140.75V139.75H86.2641V140.75ZM112.332 140.75H111.332V169H112.332H113.332V140.75H112.332ZM112.332 169V168H86.2641V169V170H112.332V169ZM86.2641 169V168H86.264V169V170H86.2641V169ZM60.1963 169V170H86.264V169V168H60.1963V169ZM60.1963 140.75H59.1963V169H60.1963H61.1963V140.75H60.1963ZM60.1963 112.5H59.1963V140.75H60.1963H61.1963V112.5H60.1963ZM60.1963 84.2501H59.1963V112.5H60.1963H61.1963V84.2501H60.1963Z" fill="#C778DD" mask="url(#path-19-outside-2_52_1850)"/>
<circle cx="88.9561" cy="142" r="2" fill="#ABB2BF"/>
<circle cx="111.717" cy="142" r="2" fill="#ABB2BF"/>
<circle cx="134.478" cy="142" r="2" fill="#ABB2BF"/>
<circle cx="157.239" cy="142" r="2" fill="#ABB2BF"/>
<circle cx="180" cy="142" r="2" fill="#ABB2BF"/>
<circle cx="88.9561" cy="166.75" r="2" fill="#ABB2BF"/>
<circle cx="111.717" cy="166.75" r="2" fill="#ABB2BF"/>
<circle cx="134.478" cy="166.75" r="2" fill="#ABB2BF"/>
<circle cx="157.239" cy="166.75" r="2" fill="#ABB2BF"/>
<circle cx="180" cy="166.75" r="2" fill="#ABB2BF"/>
<circle cx="88.9561" cy="191.5" r="2" fill="#ABB2BF"/>
<circle cx="111.717" cy="191.5" r="2" fill="#ABB2BF"/>
<circle cx="134.478" cy="191.5" r="2" fill="#ABB2BF"/>
<circle cx="157.239" cy="191.5" r="2" fill="#ABB2BF"/>
<circle cx="180" cy="191.5" r="2" fill="#ABB2BF"/>
<circle cx="88.9561" cy="216.25" r="2" fill="#ABB2BF"/>
<circle cx="111.717" cy="216.25" r="2" fill="#ABB2BF"/>
<circle cx="134.478" cy="216.25" r="2" fill="#ABB2BF"/>
<circle cx="157.239" cy="216.25" r="2" fill="#ABB2BF"/>
<circle cx="180" cy="216.25" r="2" fill="#ABB2BF"/>
<circle cx="88.9561" cy="241" r="2" fill="#ABB2BF"/>
<circle cx="111.717" cy="241" r="2" fill="#ABB2BF"/>
<circle cx="134.478" cy="241" r="2" fill="#ABB2BF"/>
<circle cx="157.239" cy="241" r="2" fill="#ABB2BF"/>
<circle cx="180" cy="241" r="2" fill="#ABB2BF"/>
</svg>
